<svg xmlns="http://www.w3.org/2000/svg" xmlns:xlink="http://www.w3.org/1999/xlink" xmlns:serif="http://www.serif.com/" viewBox="0 0 101 126.25" version="1.1" xml:space="preserve" style="" x="0px" y="0px" fill-rule="evenodd" clip-rule="evenodd" stroke-linejoin="round" stroke-miterlimit="2"><g transform="matrix(1,0,0,1,-112,-112)"><g serif:id="Seite 8" transform="matrix(1,0,0,1,112.5,112.5)"><rect x="0" y="0" width="100" height="100" style="" fill="none"/><g transform="matrix(0.28845,0,0,0.28845,-119.017,-152.701)"><path d="M485.6,807.9C452.9,807.9 426.3,781.3 426.3,748.6C426.3,715.9 452.9,689.3 485.6,689.3C518.3,689.3 544.9,715.9 544.9,748.6C544.9,781.3 518.3,807.9 485.6,807.9ZM485.6,706C462.1,706 443,725.1 443,748.6C443,772.1 462.1,791.2 485.6,791.2C509.1,791.2 528.2,772.1 528.2,748.6C528.2,725.1 509.1,706 485.6,706Z" style="" fill-rule="nonzero"/></g><g transform="matrix(0.28845,0,0,0.28845,-119.017,-152.701)"><path d="M686.3,807.9C653.6,807.9 627,781.3 627,748.6C627,715.9 653.6,689.3 686.3,689.3C719,689.3 745.6,715.9 745.6,748.6C745.6,781.3 719,807.9 686.3,807.9ZM686.3,706C662.8,706 643.7,725.1 643.7,748.6C643.7,772.1 662.8,791.2 686.3,791.2C709.8,791.2 728.9,772.1 728.9,748.6C728.9,725.1 709.8,706 686.3,706Z" style="" fill-rule="nonzero"/></g><g transform="matrix(0.28845,0,0,0.28845,-119.017,-152.701)"><path d="M686.3,644L681.8,644C677.2,644 673.4,647.7 673.4,652.4C673.4,657.1 677.1,660.8 681.8,660.8L686.3,660.8C701.3,660.8 713.6,648.6 713.6,633.5C713.6,618.5 701.4,606.2 686.3,606.2L646.8,606.2C644.2,606.2 641.8,607.4 640.2,609.5C638.6,611.6 638.1,614.2 638.7,616.7L643.2,633.5L549.6,633.5L544.7,612.6C543.6,608.1 539.1,605.3 534.6,606.4C530.1,607.5 527.3,612 528.4,616.5L534.8,643.7L478.3,744.6C476.8,747.2 476.9,750.3 478.4,752.9C479.9,755.5 482.6,757 485.6,757L568.3,757C568.7,757 569.2,757 569.6,756.9C569.7,756.9 569.8,756.9 569.9,756.8L570.2,756.8C570.3,756.8 570.5,756.7 570.6,756.7C570.9,756.6 571.2,756.5 571.5,756.4C571.7,756.3 571.9,756.2 572.1,756.1C572.4,756 572.6,755.8 572.8,755.7C573,755.6 573.2,755.4 573.4,755.3C573.5,755.2 573.6,755.2 573.7,755.1L657.4,681.4L678.2,751.2C679.3,754.8 682.6,757.2 686.2,757.2C687,757.2 687.8,757.1 688.6,756.9C693,755.6 695.5,750.9 694.2,746.5L669.7,664.2L669.7,664.1L669.7,664L662,639.7L657.6,623.1L686.3,623.1C692.1,623.1 696.9,627.8 696.9,633.7C696.9,639.3 692.1,644 686.3,644ZM540.5,667.7L557.7,740.3L499.8,740.3L540.5,667.7ZM573.2,733.1L553.6,650.1L648,650.1L652.3,663.6L573.2,733.1Z" style="" fill-rule="nonzero"/></g><g transform="matrix(0.28845,0,0,0.28845,-119.017,-152.701)"><path d="M513.8,630.8C510.2,630.8 507,628.5 505.9,625L500.5,608.4C499.6,605.7 500.2,602.7 502,600.6C503.8,598.4 506.6,597.3 509.4,597.6L570.3,604.4C574.4,604.9 577.6,608.3 577.7,612.4C577.8,616.5 574.9,620.2 570.8,620.9L515.3,630.7C514.8,630.8 514.3,630.8 513.8,630.8Z" style="" fill-rule="nonzero"/></g></g></g><text x="0" y="116" fill="#000000" font-size="5px" font-weight="bold" font-family="'Helvetica Neue', Helvetica, Arial-Unicode, Arial, Sans-serif">Created by Falco Boßer</text><text x="0" y="121" fill="#000000" font-size="5px" font-weight="bold" font-family="'Helvetica Neue', Helvetica, Arial-Unicode, Arial, Sans-serif">from the Noun Project</text></svg>