<svg xmlns="http://www.w3.org/2000/svg" xmlns:xlink="http://www.w3.org/1999/xlink" version="1.1" x="0px" y="0px" viewBox="0 0 48 60" style="enable-background:new 0 0 48 48;" xml:space="preserve"><path d="M43.45,29.53l-1.01,1.01l-8.94-15.2c-0.04-0.07-0.09-0.13-0.15-0.19c0,0-0.01-0.01-0.01-0.02  c-0.08-0.08-0.18-0.14-0.28-0.19c-0.03-0.01-0.05-0.02-0.08-0.03c-0.11-0.04-0.22-0.07-0.35-0.07H15.36c-0.35,0-0.68,0.19-0.86,0.49  l-8.94,15.2l-1.01-1.01c-0.39-0.39-1.02-0.39-1.41,0s-0.39,1.02,0,1.41l1.92,1.92c0.08,0.09,0.19,0.15,0.3,0.2  c0.03,0.01,0.05,0.02,0.08,0.03c0.11,0.04,0.22,0.07,0.33,0.07h17.28h19.2c0.12,0,0.23-0.03,0.33-0.07  c0.03-0.01,0.05-0.02,0.08-0.03c0.11-0.05,0.21-0.11,0.3-0.2l1.92-1.92c0.39-0.39,0.39-1.02,0-1.41S43.84,29.14,43.45,29.53z   M22.47,31.16H7.51l8.42-14.32h14.96L22.47,31.16z M31.64,31.16h-6.85l6.85-11.65V31.16z M33.64,31.16V19.51l6.85,11.65H33.64z"/><text x="0" y="63" fill="#000000" font-size="5px" font-weight="bold" font-family="'Helvetica Neue', Helvetica, Arial-Unicode, Arial, Sans-serif">Created by barurezeki</text><text x="0" y="68" fill="#000000" font-size="5px" font-weight="bold" font-family="'Helvetica Neue', Helvetica, Arial-Unicode, Arial, Sans-serif">from the Noun Project</text></svg>